<?xml version="1.0" encoding="UTF-8"?>
<svg id="Layer_1" xmlns="http://www.w3.org/2000/svg" version="1.1" viewBox="0 0 406 406">
  <!-- Generator: Adobe Illustrator 29.3.1, SVG Export Plug-In . SVG Version: 2.1.0 Build 151)  -->
  <defs>
    <style>
      .st0 {
        stroke: #010101;
      }

      .st0, .st1 {
        fill: none;
        stroke-linecap: round;
        stroke-linejoin: round;
        stroke-width: 10px;
      }

      .st2 {
        fill: #f37862;
      }

      .st3 {
        fill: #8c592c;
      }

      .st4 {
        fill: #6aad75;
      }

      .st1 {
        stroke: #9c7738;
      }

      .st5 {
        fill: #f6c945;
      }
    </style>
  </defs>
  <g>
    <path class="st3" d="M405.4,199.9L207,1.5C206,.5,204.8,0,203.4,0s-2.6.5-3.5,1.5L1.5,199.9c-2,1.9-2,5.1,0,7.1l198.4,198.4c.9.9,2.2,1.5,3.5,1.5s2.6-.5,3.5-1.5l81.5-81.5v-14.1l-85.1,85.1L12.1,203.4,203.4,12.1l191.4,191.4-56.3,56.3h6.7v7.4l60.2-60.2c2-1.9,2-5.1,0-7.1h0Z"/>
    <path class="st5" d="M373.5,406.9H33.3c-2.8,0-5-2.2-5-5v-226.8c0-2.8,2.2-5,5-5h340.2c2.8,0,5,2.2,5,5v226.8c0,2.8-2.2,5-5,5h0ZM38.3,396.9h330.2v-216.8H38.3v216.8Z"/>
    <path class="st2" d="M118.4,180.1h-56.7c-2.8,0-5-2.2-5-5V61.7c0-2.8,2.2-5,5-5h56.7c2.8,0,5,2.2,5,5v113.4c0,2.8-2.2,5-5,5ZM66.7,170.1h46.7v-103.4h-46.7s0,103.4,0,103.4Z"/>
    <path class="st4" d="M345.2,378.1h-56.7c-2.8,0-5-2.2-5-5v-113.4c0-2.8,2.2-5,5-5h56.7c2.8,0,5,2.2,5,5v113.4c0,2.8-2.2,5-5,5ZM293.5,368.1h46.7v-103.4h-46.7v103.4Z"/>
  </g>
  <polyline id="S4" class="st0" points="345.2 259.7 288.5 259.7 288.5 373.1 345.2 373.1 345.2 259.7 401.9 203.4 203.4 5 5 203.4 203.4 401.9 288.5 316.8"/>
  <polyline id="S3" class="st0" points="61.7 175.1 373.5 175.1 373.5 401.9 33.3 401.9 33.3 175.1 61.7 175.1 61.7 61.7 118.4 61.7 118.4 175.1"/>
  <polyline id="S2" class="st1" points="345.2 259.7 401.9 203.4 373.5 175.1 373.5 401.9 203.4 401.9 33.3 231.8 33.3 401.9 203.4 401.9 288.5 316.4 288.5 373.1 345.2 373.1 345.2 259.7 288.5 259.7 288.5 316.4"/>
  <polyline id="S1" class="st1" points="61.7 175.1 61.7 61.7 118.4 61.7 118.4 90 203.4 5 373.5 175.1 118.4 175.1 118.4 90 5 203.4 33.3 231.8 33.3 175.1 118.4 175.1"/>
</svg>
