<?xml version="1.0" encoding="UTF-8"?>
<svg id="uuid-59a4a717-0909-43a6-99ea-37e327fcfb2d" data-name="Layer 1" xmlns="http://www.w3.org/2000/svg" viewBox="0 0 566.217848511 566.2178485873">
  <rect x="87.8414172872" y="87.8408952279" width="390.5353547246" height="390.5353547772" transform="translate(-117.2672575018 283.10900717) rotate(-45.000009362)" style="fill: #8b582b;"/>
  <rect x="46.4088932739" y="243.6584946744" width="473.4004027513" height="315.6002755795" style="fill: #f6c844;"/>
  <rect x="85.8762366919" y="85.8587320358" width="78.9000688949" height="157.8001377897" style="fill: #ff7860;"/>
  <path d="M283.1089242555,566.2178485873c-1.8456460722,0-3.6151830281-.7325502452-4.9199107375-2.0386370459L2.0393165535,288.0295145768c-2.7181827279-2.7175031822-2.7181827279-7.1236773841,0-9.8411805663L278.189013518,2.0379575002c1.3047277094-1.3047277094,3.0742646652-2.0379575002,4.9199107375-2.0379575002s3.6151830281.7332297908,4.9199107375,2.0379575002l276.1496969646,276.1496969646c2.7181827279,2.7175031822,2.7181827279,7.1236773841,0,9.8411805663l-276.1496969646,276.1503765103c-1.3047277094,1.3060868007-3.0742646652,2.0386370459-4.9199107375,2.0386370459ZM16.8004078572,283.1089242936l266.3085163983,266.309195944,266.3085163983-266.3098754897L283.1089242555,16.7997283496,16.8004078572,283.1089242936Z" style="fill: #2f2f2f;"/>
  <rect x="401.4765335072" y="361.4813365843" width="78.9000688949" height="157.8001377897" style="fill: #6bae75;"/>
  <path d="M519.8096352904,566.2178485873H46.409572312c-3.8435103772,0-6.9585477834-3.1150374061-6.9585477834-6.9585477834V243.6585792726c0-3.8428308315,3.1150374061-6.9585477834,6.9585477834-6.9585477834h473.4000629784c3.8435103772,0,6.9585477834,3.1157169518,6.9585477834,6.9585477834v315.6007215313c0,3.8435103772-3.1150374061,6.9585477834-6.9585477834,6.9585477834ZM53.3681200953,552.3007530205h459.4829674117V250.617127056H53.3681200953v301.6836259646Z" style="fill: #2f2f2f;"/>
  <path d="M164.7769164715,250.617127056h-78.9006900421c-3.8435103772,0-6.9585477834-3.1157169518-6.9585477834-6.9585477834V85.8585582798c0-3.8428308315,3.1150374061-6.9585477834,6.9585477834-6.9585477834h78.9006900421c3.8435103772,0,6.9585477834,3.1157169518,6.9585477834,6.9585477834v157.8000209928c0,3.8428308315-3.1150374061,6.9585477834-6.9585477834,6.9585477834ZM92.8347742127,236.7000314892h64.9835944754V92.8171060631h-64.9835944754v143.8829254261Z" style="fill: #2f2f2f;"/>
  <path d="M480.3769584571,526.240176117h-78.9006900421c-3.8435103772,0-6.9585477834-3.1150374061-6.9585477834-6.9585477834v-157.8000209928c0-3.8435103772,3.1150374061-6.9585477834,6.9585477834-6.9585477834h78.9006900421c3.8435103772,0,6.9585477834,3.1150374061,6.9585477834,6.9585477834v157.8000209928c0,3.8435103772-3.1150374061,6.9585477834-6.9585477834,6.9585477834ZM408.4348161984,512.3230805503h64.9835944754v-143.8829254261h-64.9835944754v143.8829254261Z" style="fill: #2f2f2f;"/>
</svg>